<?xml version="1.0" encoding="UTF-8"?>
<!DOCTYPE svg PUBLIC "-//W3C//DTD SVG 1.1//EN" "http://www.w3.org/Graphics/SVG/1.1/DTD/svg11.dtd">
<svg version="1.2" width="210mm" height="297mm" viewBox="0 0 21000 29700" preserveAspectRatio="xMidYMid" fill-rule="evenodd" stroke-width="28.222" stroke-linejoin="round" xmlns="http://www.w3.org/2000/svg" xmlns:ooo="http://xml.openoffice.org/svg/export" xmlns:xlink="http://www.w3.org/1999/xlink" xmlns:presentation="http://sun.com/xmlns/staroffice/presentation" xmlns:smil="http://www.w3.org/2001/SMIL20/" xmlns:anim="urn:oasis:names:tc:opendocument:xmlns:animation:1.0" xml:space="preserve">
 <defs class="ClipPathGroup">
  <clipPath id="presentation_clip_path" clipPathUnits="userSpaceOnUse">
   <rect x="0" y="0" width="21000" height="29700"/>
  </clipPath>
  <clipPath id="presentation_clip_path_shrink" clipPathUnits="userSpaceOnUse">
   <rect x="21" y="29" width="20958" height="29641"/>
  </clipPath>
 </defs>
 <defs class="TextShapeIndex">
  <g ooo:slide="id1" ooo:id-list="id3 id4 id5 id6 id7 id8 id9 id10 id11 id12 id13 id14 id15"/>
 </defs>
 <defs class="EmbeddedBulletChars">
  <g id="bullet-char-template-57356" transform="scale(0.00048828125,-0.00048828125)">
   <path d="M 580,1141 L 1163,571 580,0 -4,571 580,1141 Z"/>
  </g>
  <g id="bullet-char-template-57354" transform="scale(0.00048828125,-0.00048828125)">
   <path d="M 8,1128 L 1137,1128 1137,0 8,0 8,1128 Z"/>
  </g>
  <g id="bullet-char-template-10146" transform="scale(0.00048828125,-0.00048828125)">
   <path d="M 174,0 L 602,739 174,1481 1456,739 174,0 Z M 1358,739 L 309,1346 659,739 1358,739 Z"/>
  </g>
  <g id="bullet-char-template-10132" transform="scale(0.00048828125,-0.00048828125)">
   <path d="M 2015,739 L 1276,0 717,0 1260,543 174,543 174,936 1260,936 717,1481 1274,1481 2015,739 Z"/>
  </g>
  <g id="bullet-char-template-10007" transform="scale(0.00048828125,-0.00048828125)">
   <path d="M 0,-2 C -7,14 -16,27 -25,37 L 356,567 C 262,823 215,952 215,954 215,979 228,992 255,992 264,992 276,990 289,987 310,991 331,999 354,1012 L 381,999 492,748 772,1049 836,1024 860,1049 C 881,1039 901,1025 922,1006 886,937 835,863 770,784 769,783 710,716 594,584 L 774,223 C 774,196 753,168 711,139 L 727,119 C 717,90 699,76 672,76 641,76 570,178 457,381 L 164,-76 C 142,-110 111,-127 72,-127 30,-127 9,-110 8,-76 1,-67 -2,-52 -2,-32 -2,-23 -1,-13 0,-2 Z"/>
  </g>
  <g id="bullet-char-template-10004" transform="scale(0.00048828125,-0.00048828125)">
   <path d="M 285,-33 C 182,-33 111,30 74,156 52,228 41,333 41,471 41,549 55,616 82,672 116,743 169,778 240,778 293,778 328,747 346,684 L 369,508 C 377,444 397,411 428,410 L 1163,1116 C 1174,1127 1196,1133 1229,1133 1271,1133 1292,1118 1292,1087 L 1292,965 C 1292,929 1282,901 1262,881 L 442,47 C 390,-6 338,-33 285,-33 Z"/>
  </g>
  <g id="bullet-char-template-9679" transform="scale(0.00048828125,-0.00048828125)">
   <path d="M 813,0 C 632,0 489,54 383,161 276,268 223,411 223,592 223,773 276,916 383,1023 489,1130 632,1184 813,1184 992,1184 1136,1130 1245,1023 1353,916 1407,772 1407,592 1407,412 1353,268 1245,161 1136,54 992,0 813,0 Z"/>
  </g>
  <g id="bullet-char-template-8226" transform="scale(0.00048828125,-0.00048828125)">
   <path d="M 346,457 C 273,457 209,483 155,535 101,586 74,649 74,723 74,796 101,859 155,911 209,963 273,989 346,989 419,989 480,963 531,910 582,859 608,796 608,723 608,648 583,586 532,535 482,483 420,457 346,457 Z"/>
  </g>
  <g id="bullet-char-template-8211" transform="scale(0.00048828125,-0.00048828125)">
   <path d="M -4,459 L 1135,459 1135,606 -4,606 -4,459 Z"/>
  </g>
  <g id="bullet-char-template-61548" transform="scale(0.00048828125,-0.00048828125)">
   <path d="M 173,740 C 173,903 231,1043 346,1159 462,1274 601,1332 765,1332 928,1332 1067,1274 1183,1159 1299,1043 1357,903 1357,740 1357,577 1299,437 1183,322 1067,206 928,148 765,148 601,148 462,206 346,322 231,437 173,577 173,740 Z"/>
  </g>
 </defs>
 <g>
  <g id="id2" class="Master_Slide">
   <g id="bg-id2" class="Background"/>
   <g id="bo-id2" class="BackgroundObjects"/>
  </g>
 </g>
 <g class="SlideGroup">
  <g>
   <g id="container-id1">
    <g id="id1" class="Slide" clip-path="url(#presentation_clip_path)">
     <g class="Page">
      <g class="com.sun.star.drawing.CustomShape">
       <g id="id3">
        <rect class="BoundingBox" stroke="none" fill="none" x="5499" y="12999" width="9004" height="9004"/>
        <g>
         <defs>
          <linearGradient id="gradient1" x1="6926" y1="12177" x2="13074" y2="22824" gradientUnits="userSpaceOnUse">
           <stop offset="0" style="stop-color:rgb(255,191,0)"/>
           <stop offset="1" style="stop-color:rgb(255,128,0)"/>
          </linearGradient>
         </defs>
         <path style="fill:url(#gradient1)" d="M 14501,17501 L 14491,17796 14462,18089 14414,18379 14348,18665 14262,18946 14159,19222 14037,19490 13898,19751 13742,20002 13570,20241 13384,20468 13183,20683 12968,20884 12741,21070 12502,21242 12251,21398 11990,21537 11722,21659 11446,21762 11165,21848 10879,21914 10589,21962 10296,21991 10001,22001 9705,21991 9412,21962 9122,21914 8836,21848 8555,21762 8279,21659 8011,21537 7750,21398 7499,21242 7260,21070 7033,20884 6818,20683 6617,20468 6431,20241 6259,20002 6103,19751 5964,19490 5842,19222 5739,18946 5653,18665 5587,18379 5539,18089 5510,17796 5500,17501 5510,17205 5539,16912 5587,16622 5653,16336 5739,16055 5842,15779 5964,15511 6103,15250 6259,14999 6431,14760 6617,14533 6818,14318 7033,14117 7260,13931 7499,13759 7750,13603 8011,13464 8279,13342 8555,13239 8836,13153 9122,13087 9412,13039 9705,13010 10000,13000 10296,13010 10589,13039 10879,13087 11165,13153 11446,13239 11722,13342 11990,13464 12251,13603 12502,13759 12741,13931 12968,14117 13183,14318 13384,14533 13570,14760 13742,14999 13898,15250 14037,15511 14159,15779 14262,16055 14348,16336 14414,16622 14462,16912 14491,17205 14501,17500 14501,17501 Z"/>
        </g>
        <path fill="none" stroke="rgb(255,191,0)" d="M 14501,17501 C 14501,18291 14293,19067 13898,19751 13503,20435 12935,21003 12251,21398 11567,21793 10791,22001 10001,22001 9210,22001 8434,21793 7750,21398 7066,21003 6498,20435 6103,19751 5708,19067 5500,18291 5500,17501 5500,16710 5708,15934 6103,15250 6498,14566 7066,13998 7750,13603 8434,13208 9210,13000 10000,13000 10791,13000 11567,13208 12251,13603 12935,13998 13503,14566 13898,15250 14293,15934 14501,16710 14501,17500 L 14501,17501 Z"/>
       </g>
      </g>
      <g class="Group">
       <g class="com.sun.star.drawing.CustomShape">
        <g id="id4">
         <rect class="BoundingBox" stroke="none" fill="none" x="8498" y="11499" width="3004" height="3004"/>
         <g>
          <defs>
           <linearGradient id="gradient2" x1="8974" y1="11226" x2="11024" y2="14775" gradientUnits="userSpaceOnUse">
            <stop offset="0" style="stop-color:rgb(255,191,0)"/>
            <stop offset="1" style="stop-color:rgb(255,128,0)"/>
           </linearGradient>
          </defs>
          <path style="fill:url(#gradient2)" d="M 8499,13001 L 8502,13099 8512,13197 8528,13293 8550,13389 8579,13483 8613,13574 8654,13664 8700,13751 8752,13834 8809,13914 8872,13990 8938,14062 9010,14128 9086,14191 9166,14248 9249,14300 9336,14346 9426,14387 9517,14421 9611,14450 9707,14472 9803,14488 9901,14498 10000,14501 10098,14498 10196,14488 10292,14472 10388,14450 10482,14421 10573,14387 10663,14346 10750,14300 10833,14248 10913,14191 10989,14128 11061,14062 11127,13990 11190,13914 11247,13834 11299,13751 11345,13664 11386,13574 11420,13483 11449,13389 11471,13293 11487,13197 11497,13099 11500,13001 11497,12902 11487,12804 11471,12708 11449,12612 11420,12518 11386,12427 11345,12337 11299,12250 11247,12167 11190,12087 11127,12011 11061,11939 10989,11873 10913,11810 10833,11753 10750,11701 10663,11655 10573,11614 10482,11580 10388,11551 10292,11529 10196,11513 10098,11503 10000,11500 9901,11503 9803,11513 9707,11529 9611,11551 9517,11580 9426,11614 9336,11655 9249,11701 9166,11753 9086,11810 9010,11873 8938,11939 8872,12011 8809,12087 8752,12167 8700,12250 8654,12337 8613,12427 8579,12518 8550,12612 8528,12708 8512,12804 8502,12902 8499,13000 8499,13001 Z"/>
         </g>
         <path fill="none" stroke="rgb(255,191,0)" d="M 8499,13001 C 8499,13264 8568,13523 8700,13751 8832,13979 9021,14168 9249,14300 9477,14432 9736,14501 10000,14501 10263,14501 10522,14432 10750,14300 10978,14168 11167,13979 11299,13751 11431,13523 11500,13264 11500,13001 11500,12737 11431,12478 11299,12250 11167,12022 10978,11833 10750,11701 10522,11569 10263,11500 10000,11500 9736,11500 9477,11569 9249,11701 9021,11833 8832,12022 8700,12250 8568,12478 8499,12737 8499,13000 L 8499,13001 Z"/>
        </g>
       </g>
       <g class="com.sun.star.drawing.CustomShape">
        <g id="id5">
         <rect class="BoundingBox" stroke="none" fill="none" x="8498" y="20499" width="3004" height="3004"/>
         <g>
          <defs>
           <linearGradient id="gradient3" x1="8974" y1="20226" x2="11024" y2="23775" gradientUnits="userSpaceOnUse">
            <stop offset="0" style="stop-color:rgb(255,191,0)"/>
            <stop offset="1" style="stop-color:rgb(255,128,0)"/>
           </linearGradient>
          </defs>
          <path style="fill:url(#gradient3)" d="M 8499,22001 L 8502,22099 8512,22197 8528,22293 8550,22389 8579,22483 8613,22574 8654,22664 8700,22751 8752,22834 8809,22914 8872,22990 8938,23062 9010,23128 9086,23191 9166,23248 9249,23300 9336,23346 9426,23387 9517,23421 9611,23450 9707,23472 9803,23488 9901,23498 10000,23501 10098,23498 10196,23488 10292,23472 10388,23450 10482,23421 10573,23387 10663,23346 10750,23300 10833,23248 10913,23191 10989,23128 11061,23062 11127,22990 11190,22914 11247,22834 11299,22751 11345,22664 11386,22574 11420,22483 11449,22389 11471,22293 11487,22197 11497,22099 11500,22001 11497,21902 11487,21804 11471,21708 11449,21612 11420,21518 11386,21427 11345,21337 11299,21250 11247,21167 11190,21087 11127,21011 11061,20939 10989,20873 10913,20810 10833,20753 10750,20701 10663,20655 10573,20614 10482,20580 10388,20551 10292,20529 10196,20513 10098,20503 10000,20500 9901,20503 9803,20513 9707,20529 9611,20551 9517,20580 9426,20614 9336,20655 9249,20701 9166,20753 9086,20810 9010,20873 8938,20939 8872,21011 8809,21087 8752,21167 8700,21250 8654,21337 8613,21427 8579,21518 8550,21612 8528,21708 8512,21804 8502,21902 8499,22001 Z"/>
         </g>
         <path fill="none" stroke="rgb(255,191,0)" d="M 8499,22001 C 8499,22264 8568,22523 8700,22751 8832,22979 9021,23168 9249,23300 9477,23432 9736,23501 10000,23501 10263,23501 10522,23432 10750,23300 10978,23168 11167,22979 11299,22751 11431,22523 11500,22264 11500,22001 11500,21737 11431,21478 11299,21250 11167,21022 10978,20833 10750,20701 10522,20569 10263,20500 10000,20500 9736,20500 9477,20569 9249,20701 9021,20833 8832,21022 8700,21250 8568,21478 8499,21737 8499,22001 Z"/>
        </g>
       </g>
       <g class="com.sun.star.drawing.CustomShape">
        <g id="id6">
         <rect class="BoundingBox" stroke="none" fill="none" x="9649" y="14499" width="704" height="2804"/>
         <path fill="rgb(129,212,26)" stroke="none" d="M 9650,15057 L 10000,14500 10351,15057 10175,15057 10175,16743 10351,16743 10000,17301 9650,16743 9825,16743 9825,15057 9650,15057 Z"/>
         <path fill="none" stroke="rgb(255,191,0)" d="M 9650,15057 L 10000,14500 10351,15057 10175,15057 10175,16743 10351,16743 10000,17301 9650,16743 9825,16743 9825,15057 9650,15057 Z"/>
        </g>
       </g>
       <g class="com.sun.star.drawing.CustomShape">
        <g id="id7">
         <rect class="BoundingBox" stroke="none" fill="none" x="9649" y="17599" width="704" height="2804"/>
         <path fill="rgb(129,212,26)" stroke="none" d="M 9650,18157 L 10000,17600 10351,18157 10175,18157 10175,19843 10351,19843 10000,20401 9650,19843 9825,19843 9825,18157 9650,18157 Z"/>
         <path fill="none" stroke="rgb(255,191,0)" d="M 9650,18157 L 10000,17600 10351,18157 10175,18157 10175,19843 10351,19843 10000,20401 9650,19843 9825,19843 9825,18157 9650,18157 Z"/>
        </g>
       </g>
      </g>
      <g class="Group">
       <g class="com.sun.star.drawing.CustomShape">
        <g id="id8">
         <rect class="BoundingBox" stroke="none" fill="none" x="4602" y="13749" width="3004" height="3004"/>
         <g>
          <defs>
           <linearGradient id="gradient4" x1="5078" y1="13476" x2="7128" y2="17025" gradientUnits="userSpaceOnUse">
            <stop offset="0" style="stop-color:rgb(255,191,0)"/>
            <stop offset="1" style="stop-color:rgb(255,128,0)"/>
           </linearGradient>
          </defs>
          <path style="fill:url(#gradient4)" d="M 5353,16550 L 5440,16597 5529,16637 5621,16672 5715,16700 5810,16722 5907,16738 6005,16748 6103,16751 6202,16748 6299,16738 6396,16722 6492,16700 6585,16672 6677,16637 6767,16597 6853,16550 6937,16498 7017,16441 7093,16379 7164,16312 7231,16240 7293,16164 7351,16085 7403,16001 7449,15914 7490,15825 7524,15733 7553,15639 7575,15544 7591,15447 7600,15349 7604,15251 7600,15152 7591,15054 7575,14958 7553,14862 7524,14769 7490,14677 7449,14587 7403,14500 7351,14417 7293,14337 7231,14261 7164,14190 7093,14123 7017,14061 6937,14003 6853,13951 6767,13905 6677,13864 6585,13830 6492,13801 6396,13779 6299,13763 6202,13753 6103,13750 6005,13753 5907,13763 5810,13779 5715,13801 5621,13830 5529,13864 5440,13905 5353,13951 5269,14003 5189,14061 5114,14123 5042,14190 4975,14261 4913,14337 4856,14417 4804,14500 4757,14587 4717,14677 4682,14769 4654,14862 4632,14958 4616,15054 4606,15152 4603,15251 4606,15349 4616,15447 4632,15544 4654,15639 4682,15733 4717,15825 4757,15914 4804,16001 4856,16085 4913,16164 4975,16240 5042,16312 5114,16379 5189,16441 5269,16498 5353,16550 5353,16550 Z"/>
         </g>
         <path fill="none" stroke="rgb(255,191,0)" d="M 5353,16550 C 5581,16682 5840,16751 6103,16751 6367,16751 6625,16682 6853,16550 7082,16418 7271,16229 7403,16001 7534,15773 7604,15514 7604,15251 7604,14987 7534,14729 7403,14500 7271,14272 7082,14083 6853,13951 6625,13820 6367,13750 6103,13750 5840,13750 5581,13820 5353,13951 5125,14083 4935,14272 4804,14500 4672,14729 4603,14987 4603,15251 4603,15514 4672,15773 4804,16001 4935,16229 5125,16418 5353,16550 L 5353,16550 Z"/>
        </g>
       </g>
       <g class="com.sun.star.drawing.CustomShape">
        <g id="id9">
         <rect class="BoundingBox" stroke="none" fill="none" x="12396" y="18249" width="3004" height="3004"/>
         <g>
          <defs>
           <linearGradient id="gradient5" x1="12872" y1="17976" x2="14922" y2="21525" gradientUnits="userSpaceOnUse">
            <stop offset="0" style="stop-color:rgb(255,191,0)"/>
            <stop offset="1" style="stop-color:rgb(255,128,0)"/>
           </linearGradient>
          </defs>
          <path style="fill:url(#gradient5)" d="M 13147,21050 L 13234,21097 13323,21137 13415,21172 13509,21200 13604,21222 13701,21238 13799,21248 13897,21251 13996,21248 14093,21238 14190,21222 14286,21200 14379,21172 14471,21137 14561,21097 14647,21050 14731,20998 14811,20941 14887,20879 14958,20812 15025,20740 15087,20664 15145,20585 15197,20501 15243,20414 15284,20325 15318,20233 15347,20139 15369,20044 15385,19947 15394,19849 15398,19751 15394,19652 15385,19554 15369,19458 15347,19362 15318,19269 15284,19177 15243,19087 15197,19000 15145,18917 15087,18837 15025,18761 14958,18690 14887,18623 14811,18561 14731,18503 14647,18451 14561,18405 14471,18364 14379,18330 14286,18301 14190,18279 14093,18263 13996,18253 13897,18250 13799,18253 13701,18263 13604,18279 13509,18301 13415,18330 13323,18364 13234,18405 13147,18451 13063,18503 12983,18561 12908,18623 12836,18690 12769,18761 12707,18837 12650,18917 12598,19000 12551,19087 12511,19177 12476,19269 12448,19362 12426,19458 12410,19554 12400,19652 12397,19751 12400,19849 12410,19947 12426,20044 12448,20139 12476,20233 12511,20325 12551,20414 12598,20501 12650,20585 12707,20664 12769,20740 12836,20812 12908,20879 12983,20941 13063,20998 13147,21050 Z"/>
         </g>
         <path fill="none" stroke="rgb(255,191,0)" d="M 13147,21050 C 13375,21182 13634,21251 13897,21251 14161,21251 14419,21182 14647,21050 14876,20918 15065,20729 15197,20501 15328,20273 15398,20014 15398,19751 15398,19487 15328,19229 15197,19000 15065,18772 14876,18583 14647,18451 14419,18320 14161,18250 13897,18250 13634,18250 13375,18320 13147,18451 12919,18583 12729,18772 12598,19000 12466,19229 12397,19487 12397,19751 12397,20014 12466,20273 12598,20501 12729,20729 12919,20918 13147,21050 Z"/>
        </g>
       </g>
       <g class="com.sun.star.drawing.CustomShape">
        <g id="id10">
         <rect class="BoundingBox" stroke="none" fill="none" x="7401" y="15974" width="2428" height="1453"/>
         <path fill="rgb(129,212,26)" stroke="none" d="M 7709,16582 L 7402,16000 8059,15975 7971,16127 9432,16970 9520,16818 9827,17401 9169,17425 9257,17273 7796,16430 7709,16582 Z"/>
         <path fill="none" stroke="rgb(255,191,0)" d="M 7709,16582 L 7402,16000 8059,15975 7971,16127 9432,16970 9520,16818 9827,17401 9169,17425 9257,17273 7796,16430 7709,16582 Z"/>
        </g>
       </g>
       <g class="com.sun.star.drawing.CustomShape">
        <g id="id11">
         <rect class="BoundingBox" stroke="none" fill="none" x="10086" y="17524" width="2428" height="1453"/>
         <path fill="rgb(129,212,26)" stroke="none" d="M 10394,18132 L 10087,17550 10744,17525 10656,17677 12117,18520 12205,18368 12512,18951 11854,18975 11942,18823 10481,17980 10394,18132 Z"/>
         <path fill="none" stroke="rgb(255,191,0)" d="M 10394,18132 L 10087,17550 10744,17525 10656,17677 12117,18520 12205,18368 12512,18951 11854,18975 11942,18823 10481,17980 10394,18132 Z"/>
        </g>
       </g>
      </g>
      <g class="Group">
       <g class="com.sun.star.drawing.CustomShape">
        <g id="id12">
         <rect class="BoundingBox" stroke="none" fill="none" x="4602" y="18249" width="3004" height="3004"/>
         <g>
          <defs>
           <linearGradient id="gradient6" x1="5078" y1="17976" x2="7128" y2="21525" gradientUnits="userSpaceOnUse">
            <stop offset="0" style="stop-color:rgb(255,191,0)"/>
            <stop offset="1" style="stop-color:rgb(255,128,0)"/>
           </linearGradient>
          </defs>
          <path style="fill:url(#gradient6)" d="M 6854,21050 L 6938,20998 7017,20940 7093,20878 7165,20811 7232,20740 7294,20664 7351,20584 7403,20500 7450,20414 7490,20324 7525,20232 7553,20139 7575,20043 7591,19946 7601,19849 7604,19750 7601,19652 7591,19554 7575,19457 7553,19362 7525,19268 7490,19176 7450,19087 7403,19000 7351,18916 7294,18836 7232,18761 7165,18689 7093,18622 7017,18560 6938,18503 6854,18451 6767,18404 6678,18364 6586,18329 6492,18301 6397,18279 6300,18263 6202,18253 6104,18250 6005,18253 5907,18263 5811,18279 5715,18301 5622,18329 5530,18364 5440,18404 5353,18451 5270,18503 5190,18560 5114,18622 5043,18689 4976,18761 4914,18836 4856,18916 4804,19000 4758,19087 4717,19176 4683,19268 4654,19362 4632,19457 4616,19554 4606,19652 4603,19750 4606,19849 4616,19946 4632,20043 4654,20139 4683,20232 4717,20324 4758,20414 4804,20500 4856,20584 4914,20664 4976,20740 5043,20811 5114,20878 5190,20940 5270,20998 5353,21050 5440,21096 5530,21137 5622,21171 5715,21200 5811,21222 5907,21238 6005,21247 6104,21251 6202,21247 6300,21238 6397,21222 6492,21200 6586,21171 6678,21137 6767,21096 6854,21050 Z"/>
         </g>
         <path fill="none" stroke="rgb(255,191,0)" d="M 6854,21050 C 7082,20918 7271,20729 7403,20500 7535,20272 7604,20014 7604,19750 7604,19487 7535,19228 7403,19000 7271,18772 7082,18582 6854,18451 6626,18319 6367,18250 6104,18250 5840,18250 5582,18319 5353,18451 5125,18582 4936,18772 4804,19000 4673,19228 4603,19487 4603,19750 4603,20014 4673,20272 4804,20500 4936,20729 5125,20918 5353,21050 5582,21181 5840,21251 6104,21251 6367,21251 6626,21181 6854,21050 Z"/>
        </g>
       </g>
       <g class="com.sun.star.drawing.CustomShape">
        <g id="id13">
         <rect class="BoundingBox" stroke="none" fill="none" x="12396" y="13749" width="3004" height="3004"/>
         <g>
          <defs>
           <linearGradient id="gradient7" x1="12872" y1="13476" x2="14922" y2="17025" gradientUnits="userSpaceOnUse">
            <stop offset="0" style="stop-color:rgb(255,191,0)"/>
            <stop offset="1" style="stop-color:rgb(255,128,0)"/>
           </linearGradient>
          </defs>
          <path style="fill:url(#gradient7)" d="M 14648,16550 L 14732,16498 14811,16440 14887,16378 14959,16311 15026,16240 15088,16164 15145,16084 15197,16000 15244,15914 15284,15824 15319,15732 15347,15639 15369,15543 15385,15446 15395,15349 15398,15250 15395,15152 15385,15054 15369,14957 15347,14862 15319,14768 15284,14676 15244,14587 15197,14500 15145,14416 15088,14336 15026,14261 14959,14189 14887,14122 14811,14060 14732,14003 14648,13951 14561,13904 14472,13864 14380,13829 14286,13801 14191,13779 14094,13763 13996,13753 13898,13750 13799,13753 13701,13763 13605,13779 13509,13801 13416,13829 13324,13864 13234,13904 13147,13951 13064,14003 12984,14060 12908,14122 12837,14189 12770,14261 12708,14336 12650,14416 12598,14500 12552,14587 12511,14676 12477,14768 12448,14862 12426,14957 12410,15054 12400,15152 12397,15250 12400,15349 12410,15446 12426,15543 12448,15639 12477,15732 12511,15824 12552,15914 12598,16000 12650,16084 12708,16164 12770,16240 12837,16311 12908,16378 12984,16440 13064,16498 13147,16550 13234,16596 13324,16637 13416,16671 13509,16700 13605,16722 13701,16738 13799,16747 13898,16751 13996,16747 14094,16738 14191,16722 14286,16700 14380,16671 14472,16637 14561,16596 14648,16550 14648,16550 Z"/>
         </g>
         <path fill="none" stroke="rgb(255,191,0)" d="M 14648,16550 C 14876,16418 15065,16229 15197,16000 15329,15772 15398,15514 15398,15250 15398,14987 15329,14728 15197,14500 15065,14272 14876,14082 14648,13951 14420,13819 14161,13750 13898,13750 13634,13750 13376,13819 13147,13951 12919,14082 12730,14272 12598,14500 12467,14728 12397,14987 12397,15250 12397,15514 12467,15772 12598,16000 12730,16229 12919,16418 13147,16550 13376,16681 13634,16751 13898,16751 14161,16751 14420,16681 14648,16550 L 14648,16550 Z"/>
        </g>
       </g>
       <g class="com.sun.star.drawing.CustomShape">
        <g id="id14">
         <rect class="BoundingBox" stroke="none" fill="none" x="7401" y="17574" width="2428" height="1453"/>
         <path fill="rgb(129,212,26)" stroke="none" d="M 8059,19025 L 7402,19000 7708,18418 7796,18570 9257,17727 9169,17575 9827,17600 9519,18182 9432,18030 7971,18873 8059,19025 Z"/>
         <path fill="none" stroke="rgb(255,191,0)" d="M 8059,19025 L 7402,19000 7708,18418 7796,18570 9257,17727 9169,17575 9827,17600 9519,18182 9432,18030 7971,18873 8059,19025 Z"/>
        </g>
       </g>
       <g class="com.sun.star.drawing.CustomShape">
        <g id="id15">
         <rect class="BoundingBox" stroke="none" fill="none" x="10086" y="16024" width="2428" height="1453"/>
         <path fill="rgb(129,212,26)" stroke="none" d="M 10744,17475 L 10087,17450 10393,16868 10481,17020 11942,16177 11854,16025 12512,16050 12204,16632 12117,16480 10656,17323 10744,17475 Z"/>
         <path fill="none" stroke="rgb(255,191,0)" d="M 10744,17475 L 10087,17450 10393,16868 10481,17020 11942,16177 11854,16025 12512,16050 12204,16632 12117,16480 10656,17323 10744,17475 Z"/>
        </g>
       </g>
      </g>
     </g>
    </g>
   </g>
  </g>
 </g>
</svg>